<svg width="128" height="128" viewBox="0 0 128 128" fill="none" xmlns="http://www.w3.org/2000/svg">
  <defs>
    <linearGradient id="fnlla-ui-mark-shield-shell" x1="30" y1="18" x2="101" y2="104" gradientUnits="userSpaceOnUse">
      <stop stop-color="#16325B"/>
      <stop offset="1" stop-color="#0F766E"/>
    </linearGradient>
  </defs>
  <rect width="128" height="128" rx="30" fill="#EEF4FC"/>
  <path d="M64 16L98 30V58C98 80.4 84.5 100.78 64 111C43.5 100.78 30 80.4 30 58V30L64 16Z" fill="url(#fnlla-ui-mark-shield-shell)"/>
  <path d="M64 29L86 38V58C86 73.877 77.126 88.922 64 96.412C50.874 88.922 42 73.877 42 58V38L64 29Z" fill="#F9FBFF"/>
  <path d="M50 40C50 37.791 51.791 36 54 36H60C62.209 36 64 37.791 64 40V88H54C51.791 88 50 86.209 50 84V40Z" fill="#16325B"/>
  <path d="M60 40C60 37.791 61.791 36 64 36H76C78.209 36 80 37.791 80 40V46C80 48.209 78.209 50 76 50H60V40Z" fill="#2F65EB"/>
  <path d="M60 58C60 55.791 61.791 54 64 54H72C74.209 54 76 55.791 76 58V64C76 66.209 74.209 68 72 68H60V58Z" fill="#0F766E"/>
  <path d="M64 74L74 84" stroke="#99D6CF" stroke-width="6" stroke-linecap="round"/>
  <path d="M74 74L64 84" stroke="#99D6CF" stroke-width="6" stroke-linecap="round"/>
</svg>
