<svg width="128" height="128" viewBox="0 0 128 128" fill="none" xmlns="http://www.w3.org/2000/svg">
  <defs>
    <linearGradient id="fnlla-ui-premium-shell" x1="24" y1="16" x2="104" y2="108" gradientUnits="userSpaceOnUse">
      <stop stop-color="#2F65EB"/>
      <stop offset="1" stop-color="#0F766E"/>
    </linearGradient>
    <linearGradient id="fnlla-ui-premium-panel" x1="36" y1="28" x2="90" y2="92" gradientUnits="userSpaceOnUse">
      <stop stop-color="#FFFFFF"/>
      <stop offset="1" stop-color="#F1F6FE"/>
    </linearGradient>
    <linearGradient id="fnlla-ui-premium-glyph" x1="45" y1="32" x2="82" y2="88" gradientUnits="userSpaceOnUse">
      <stop stop-color="#1B3765"/>
      <stop offset="1" stop-color="#16325B"/>
    </linearGradient>
  </defs>
  <rect width="128" height="128" rx="30" fill="#F4F8FE"/>
  <path d="M64 12L103.837 35V81L64 104L24.163 81V35L64 12Z" fill="url(#fnlla-ui-premium-shell)"/>
  <path d="M64 24L93.444 41V75L64 92L34.556 75V41L64 24Z" fill="url(#fnlla-ui-premium-panel)"/>
  <path d="M45 38C45 34.686 47.686 32 51 32H57C60.314 32 63 34.686 63 38V89H51C47.686 89 45 86.314 45 83V38Z" fill="url(#fnlla-ui-premium-glyph)"/>
  <path d="M57 38C57 34.686 59.686 32 63 32H82C85.314 32 88 34.686 88 38V44C88 47.314 85.314 50 82 50H57V38Z" fill="#2F65EB"/>
  <path d="M57 55C57 51.686 59.686 49 63 49H75C78.314 49 81 51.686 81 55V61C81 64.314 78.314 67 75 67H57V55Z" fill="#0F766E"/>
  <path d="M60 44L79 60" stroke="#1B3765" stroke-width="7" stroke-linecap="round"/>
  <rect x="67" y="70" width="20" height="20" rx="8" fill="#E6EEF9"/>
  <path d="M74 76H80V82H74V76Z" fill="#16325B"/>
  <circle cx="84.5" cy="84.5" r="2.5" fill="#2F65EB"/>
</svg>
